<svg id="Capa_1" enable-background="new 0 0 50 50" height="50" viewBox="0 0 512 512" width="50" xmlns="http://www.w3.org/2000/svg"><path d="m503.742 338.581h-495.484c-4.561 0-8.258-3.697-8.258-8.258v-280.775c0-4.561 3.697-8.258 8.258-8.258h8.258l495.484 280.775v8.258c0 4.56-3.697 8.258-8.258 8.258z" fill="#b3e59f"/><path d="m512 322.065h-462.452c-18.243 0-33.032-14.789-33.032-33.032v-247.743h487.226c4.561 0 8.258 3.697 8.258 8.258z" fill="#ccf49f"/><path d="m335.681 177.603-54.907 20.59 54.907 20.59c5.399 2.025 11.158-1.966 11.158-7.732v-25.716c0-5.765-5.759-9.756-11.158-7.732z" fill="#6f6571"/><path d="m289.032 214.71h-90.366c-4.561 0-8.258-3.697-8.258-8.258v-41.29l32.559-33.032 41.29 24.774h33.032v49.548c.001 4.56-3.696 8.258-8.257 8.258z" fill="#857e87"/><g fill="#c8c5c9"><path d="m82.581 421.161h16.516v41.29h-16.516z"/><path d="m165.161 421.161h16.516v41.29h-16.516z"/><path d="m247.742 421.161h16.516v41.29h-16.516z"/><path d="m330.323 421.161h16.516v41.29h-16.516z"/><path d="m412.903 421.161h16.516v41.29h-16.516z"/></g><path d="m148.645 272.516h-33.032c-13.682 0-24.774 11.092-24.774 24.774v57.806h100.661l-18.081-57.806c0-13.682-11.091-24.774-24.774-24.774z" fill="#ff8086"/><path d="m313.806 272.516h-33.032c-13.682 0-24.774 11.092-24.774 24.774l-13 57.806h109.5l-13.919-57.806c0-13.682-11.092-24.774-24.775-24.774z" fill="#ff8086"/><path d="m231.226 272.516h-33.032c-13.682 0-24.774 11.092-24.774 24.774v57.806h82.58v-57.806c0-13.682-11.092-24.774-24.774-24.774z" fill="#e5646e"/><path d="m396.387 272.516h-33.032c-13.682 0-24.774 11.092-24.774 24.774v57.806h82.581v-57.806c-.001-13.682-11.092-24.774-24.775-24.774z" fill="#e5646e"/><path d="m272.516 313.806h-33.032c-13.682 0-24.774 11.092-24.774 24.774l-5.71 57.807 47.333 6.946 47.167-6.946-6.21-57.806c0-13.683-11.091-24.775-24.774-24.775z" fill="#e5646e"/><path d="m297.29 396.387h-82.58v24.774c0 4.561 3.697 8.258 8.258 8.258h66.065c4.561 0 8.258-3.697 8.258-8.258v-24.774z" fill="#db4655"/><path d="m107.355 313.806h-33.032c-13.682 0-24.774 11.092-24.774 24.774v57.806l39.951 7.614 51-7.613-8.371-57.806c0-13.683-11.092-24.775-24.774-24.775z" fill="#e5646e"/><path d="m132.129 396.387h-82.581v24.774c0 4.561 3.697 8.258 8.258 8.258h66.065c4.561 0 8.258-3.697 8.258-8.258z" fill="#db4655"/><path d="m437.677 313.806h-33.032c-13.682 0-24.774 11.092-24.774 24.774l-4.871 57.807 47.333 7.613 40.119-7.613v-57.806c0-13.683-11.092-24.775-24.775-24.775z" fill="#e5646e"/><path d="m462.452 396.387h-82.581v24.774c0 4.561 3.697 8.258 8.258 8.258h66.065c4.561 0 8.258-3.697 8.258-8.258z" fill="#db4655"/><path d="m355.097 313.806h-33.032c-13.682 0-24.774 11.092-24.774 24.774v57.806h82.581v-57.806c-.001-13.682-11.093-24.774-24.775-24.774z" fill="#db4655"/><path d="m379.871 396.387h-82.581v24.774c0 4.561 3.697 8.258 8.258 8.258h66.065c4.561 0 8.258-3.697 8.258-8.258z" fill="#bd4150"/><path d="m189.935 313.806h-33.032c-13.682 0-24.774 11.092-24.774 24.774v57.806l42.204 6.614 40.377-6.613v-57.806c0-13.683-11.092-24.775-24.775-24.775z" fill="#db4655"/><path d="m214.71 396.387h-82.581v24.774c0 4.561 3.697 8.258 8.258 8.258h66.065c4.561 0 8.258-3.697 8.258-8.258z" fill="#bd4150"/><path d="m462.452 470.71h-412.904c-4.565 0-8.258-3.698-8.258-8.258s3.694-8.258 8.258-8.258h412.903c4.565 0 8.258 3.698 8.258 8.258.001 4.56-3.693 8.258-8.257 8.258z" fill="#dad8db"/><path d="m272.016 90.839c-22.804 0-41.29 18.486-41.29 41.29s18.486 41.29 41.29 41.29 41.29-18.486 41.29-41.29-18.486-41.29-41.29-41.29zm0 57.806c-9.121 0-16.516-7.395-16.516-16.516 0-9.122 7.395-16.516 16.516-16.516s16.516 7.394 16.516 16.516-7.394 16.516-16.516 16.516z" fill="#6f6571"/><path d="m198.194 181.677v-8.258c20.782 0 37.081-19.192 32.143-40.818-2.726-11.938-12.423-21.634-24.362-24.358-21.625-4.935-40.813 11.363-40.813 32.144 0 12.196 6.684 22.728 16.516 28.451v45.872c0 4.561 3.697 8.258 8.258 8.258h99.097c4.561 0 8.258-3.697 8.258-8.258v-8.258h-74.323c-13.683 0-24.774-11.092-24.774-24.775zm0-49.548c4.561 0 8.258 3.697 8.258 8.258 0 4.56-3.697 8.258-8.258 8.258-4.56 0-8.258-3.698-8.258-8.258-.001-4.561 3.697-8.258 8.258-8.258z" fill="#6f6571"/></svg>